<svg id="visual" viewBox="0 0 1920 1080" width="1920" height="1080" xmlns="http://www.w3.org/2000/svg" xmlns:xlink="http://www.w3.org/1999/xlink" version="1.1"><rect x="0" y="0" width="1920" height="1080" fill="#001220"></rect><defs><linearGradient id="grad1_0" x1="43.8%" y1="100%" x2="100%" y2="0%"><stop offset="14.444444444444446%" stop-color="#001220" stop-opacity="1"></stop><stop offset="85.55555555555554%" stop-color="#001220" stop-opacity="1"></stop></linearGradient></defs><defs><linearGradient id="grad2_0" x1="0%" y1="100%" x2="56.3%" y2="0%"><stop offset="14.444444444444446%" stop-color="#001220" stop-opacity="1"></stop><stop offset="85.55555555555554%" stop-color="#001220" stop-opacity="1"></stop></linearGradient></defs><g transform="translate(1920, 1080)"><path d="M-810 0C-764.7 -74.3 -719.4 -148.7 -687.6 -223.4C-655.8 -298.2 -637.5 -373.4 -597.1 -433.8C-556.6 -494.2 -494.1 -539.8 -435.5 -599.5C-377 -659.2 -322.2 -732.9 -250.3 -770.4C-178.4 -807.8 -89.2 -808.9 0 -810L0 0Z" fill="#0066FF"></path></g><g transform="translate(0, 0)"><path d="M810 0C814.3 92.8 818.6 185.6 770.4 250.3C722.1 315 621.3 351.7 559 406.2C496.8 460.6 473 532.8 424.4 584.1C375.8 635.4 302.3 665.8 227.4 700C152.6 734.1 76.3 772.1 0 810L0 0Z" fill="#0066FF"></path></g></svg>