<svg id="visual" viewBox="0 0 1920 1080" width="1920" height="1080" xmlns="http://www.w3.org/2000/svg" xmlns:xlink="http://www.w3.org/1999/xlink" version="1.1"><rect x="0" y="0" width="1920" height="1080" fill="#001220"></rect><path d="M0 738L45.7 746.2C91.3 754.3 182.7 770.7 274.2 766.5C365.7 762.3 457.3 737.7 548.8 713.2C640.3 688.7 731.7 664.3 823 652C914.3 639.7 1005.7 639.3 1097 644.3C1188.3 649.3 1279.7 659.7 1371.2 680.7C1462.7 701.7 1554.3 733.3 1645.8 738C1737.3 742.7 1828.7 720.3 1874.3 709.2L1920 698L1920 1081L1874.3 1081C1828.7 1081 1737.3 1081 1645.8 1081C1554.3 1081 1462.7 1081 1371.2 1081C1279.7 1081 1188.3 1081 1097 1081C1005.7 1081 914.3 1081 823 1081C731.7 1081 640.3 1081 548.8 1081C457.3 1081 365.7 1081 274.2 1081C182.7 1081 91.3 1081 45.7 1081L0 1081Z" fill="#4facf7"></path><path d="M0 733L45.7 752.3C91.3 771.7 182.7 810.3 274.2 820.2C365.7 830 457.3 811 548.8 805.5C640.3 800 731.7 808 823 816.8C914.3 825.7 1005.7 835.3 1097 838.2C1188.3 841 1279.7 837 1371.2 838.3C1462.7 839.7 1554.3 846.3 1645.8 827.5C1737.3 808.7 1828.7 764.3 1874.3 742.2L1920 720L1920 1081L1874.3 1081C1828.7 1081 1737.3 1081 1645.8 1081C1554.3 1081 1462.7 1081 1371.2 1081C1279.7 1081 1188.3 1081 1097 1081C1005.7 1081 914.3 1081 823 1081C731.7 1081 640.3 1081 548.8 1081C457.3 1081 365.7 1081 274.2 1081C182.7 1081 91.3 1081 45.7 1081L0 1081Z" fill="#2b9dfc"></path><path d="M0 895L45.7 885.5C91.3 876 182.7 857 274.2 840.2C365.7 823.3 457.3 808.7 548.8 811.8C640.3 815 731.7 836 823 855.5C914.3 875 1005.7 893 1097 903C1188.3 913 1279.7 915 1371.2 906.3C1462.7 897.7 1554.3 878.3 1645.8 877C1737.3 875.7 1828.7 892.3 1874.3 900.7L1920 909L1920 1081L1874.3 1081C1828.7 1081 1737.3 1081 1645.8 1081C1554.3 1081 1462.7 1081 1371.2 1081C1279.7 1081 1188.3 1081 1097 1081C1005.7 1081 914.3 1081 823 1081C731.7 1081 640.3 1081 548.8 1081C457.3 1081 365.7 1081 274.2 1081C182.7 1081 91.3 1081 45.7 1081L0 1081Z" fill="#008cff"></path><path d="M0 906L45.7 913.8C91.3 921.7 182.7 937.3 274.2 948C365.7 958.7 457.3 964.3 548.8 952.7C640.3 941 731.7 912 823 901.3C914.3 890.7 1005.7 898.3 1097 911.5C1188.3 924.7 1279.7 943.3 1371.2 940.3C1462.7 937.3 1554.3 912.7 1645.8 902.7C1737.3 892.7 1828.7 897.3 1874.3 899.7L1920 902L1920 1081L1874.3 1081C1828.7 1081 1737.3 1081 1645.8 1081C1554.3 1081 1462.7 1081 1371.2 1081C1279.7 1081 1188.3 1081 1097 1081C1005.7 1081 914.3 1081 823 1081C731.7 1081 640.3 1081 548.8 1081C457.3 1081 365.7 1081 274.2 1081C182.7 1081 91.3 1081 45.7 1081L0 1081Z" fill="#007aff"></path><path d="M0 1021L45.7 1013.5C91.3 1006 182.7 991 274.2 991C365.7 991 457.3 1006 548.8 1010.3C640.3 1014.7 731.7 1008.3 823 1002.8C914.3 997.3 1005.7 992.7 1097 991.5C1188.3 990.3 1279.7 992.7 1371.2 989.7C1462.7 986.7 1554.3 978.3 1645.8 980.7C1737.3 983 1828.7 996 1874.3 1002.5L1920 1009L1920 1081L1874.3 1081C1828.7 1081 1737.3 1081 1645.8 1081C1554.3 1081 1462.7 1081 1371.2 1081C1279.7 1081 1188.3 1081 1097 1081C1005.7 1081 914.3 1081 823 1081C731.7 1081 640.3 1081 548.8 1081C457.3 1081 365.7 1081 274.2 1081C182.7 1081 91.3 1081 45.7 1081L0 1081Z" fill="#0066ff"></path></svg>