<svg id="visual" viewBox="0 0 1920 1080" width="1920" height="1080" xmlns="http://www.w3.org/2000/svg" xmlns:xlink="http://www.w3.org/1999/xlink" version="1.1"><g stroke-width="1" stroke-linejoin="bevel"><path d="M957 411L953 184L698 240Z" fill="#15384f" stroke="#15384f"></path><path d="M698 240L718 419L957 411Z" fill="#297ea6" stroke="#297ea6"></path><path d="M1162 0L957 0L953 184Z" fill="#112e42" stroke="#112e42"></path><path d="M953 184L684 0L698 240Z" fill="#112e42" stroke="#112e42"></path><path d="M957 0L684 0L953 184Z" fill="#19435d" stroke="#19435d"></path><path d="M684 0L479 227L698 240Z" fill="#1d4e6b" stroke="#1d4e6b"></path><path d="M698 240L482 439L718 419Z" fill="#00101c" stroke="#00101c"></path><path d="M484 648L750 663L718 419Z" fill="#297ea6" stroke="#297ea6"></path><path d="M718 419L750 663L957 411Z" fill="#15384f" stroke="#15384f"></path><path d="M1194 653L1202 421L957 411Z" fill="#1d4e6b" stroke="#1d4e6b"></path><path d="M957 411L1226 217L953 184Z" fill="#081a28" stroke="#081a28"></path><path d="M479 227L482 439L698 240Z" fill="#081a28" stroke="#081a28"></path><path d="M1202 421L1226 217L957 411Z" fill="#0c2435" stroke="#0c2435"></path><path d="M750 663L954 686L957 411Z" fill="#19435d" stroke="#19435d"></path><path d="M1226 217L1162 0L953 184Z" fill="#297ea6" stroke="#297ea6"></path><path d="M684 0L464 0L479 227Z" fill="#112e42" stroke="#112e42"></path><path d="M479 227L209 254L482 439Z" fill="#297ea6" stroke="#297ea6"></path><path d="M954 686L1194 653L957 411Z" fill="#246688" stroke="#246688"></path><path d="M1459 455L1439 186L1226 217Z" fill="#19435d" stroke="#19435d"></path><path d="M241 630L484 648L482 439Z" fill="#1d4e6b" stroke="#1d4e6b"></path><path d="M482 439L484 648L718 419Z" fill="#1d4e6b" stroke="#1d4e6b"></path><path d="M757 869L974 845L954 686Z" fill="#205a7a" stroke="#205a7a"></path><path d="M757 869L954 686L750 663Z" fill="#15384f" stroke="#15384f"></path><path d="M954 686L1181 856L1194 653Z" fill="#112e42" stroke="#112e42"></path><path d="M484 648L757 869L750 663Z" fill="#081a28" stroke="#081a28"></path><path d="M1459 455L1226 217L1202 421Z" fill="#112e42" stroke="#112e42"></path><path d="M1226 217L1435 0L1162 0Z" fill="#112e42" stroke="#112e42"></path><path d="M1468 665L1459 455L1194 653Z" fill="#19435d" stroke="#19435d"></path><path d="M1194 653L1459 455L1202 421Z" fill="#0c2435" stroke="#0c2435"></path><path d="M268 0L209 254L479 227Z" fill="#112e42" stroke="#112e42"></path><path d="M209 254L222 447L482 439Z" fill="#1d4e6b" stroke="#1d4e6b"></path><path d="M484 648L462 870L757 869Z" fill="#112e42" stroke="#112e42"></path><path d="M464 0L268 0L479 227Z" fill="#277297" stroke="#277297"></path><path d="M1201 1080L1181 856L974 845Z" fill="#00101c" stroke="#00101c"></path><path d="M974 845L1181 856L954 686Z" fill="#277297" stroke="#277297"></path><path d="M1655 0L1435 0L1439 186Z" fill="#205a7a" stroke="#205a7a"></path><path d="M1439 186L1435 0L1226 217Z" fill="#112e42" stroke="#112e42"></path><path d="M232 851L462 870L484 648Z" fill="#081a28" stroke="#081a28"></path><path d="M222 447L241 630L482 439Z" fill="#1d4e6b" stroke="#1d4e6b"></path><path d="M1460 846L1468 665L1194 653Z" fill="#00101c" stroke="#00101c"></path><path d="M757 869L935 1080L974 845Z" fill="#00101c" stroke="#00101c"></path><path d="M1181 856L1460 846L1194 653Z" fill="#00101c" stroke="#00101c"></path><path d="M706 1080L935 1080L757 869Z" fill="#0c2435" stroke="#0c2435"></path><path d="M462 870L706 1080L757 869Z" fill="#297ea6" stroke="#297ea6"></path><path d="M1431 1080L1460 846L1181 856Z" fill="#1d4e6b" stroke="#1d4e6b"></path><path d="M0 615L241 630L222 447Z" fill="#1d4e6b" stroke="#1d4e6b"></path><path d="M0 826L232 851L241 630Z" fill="#277297" stroke="#277297"></path><path d="M241 630L232 851L484 648Z" fill="#1d4e6b" stroke="#1d4e6b"></path><path d="M462 870L462 1080L706 1080Z" fill="#081a28" stroke="#081a28"></path><path d="M1677 610L1654 470L1468 665Z" fill="#112e42" stroke="#112e42"></path><path d="M1468 665L1654 470L1459 455Z" fill="#277297" stroke="#277297"></path><path d="M1459 455L1692 193L1439 186Z" fill="#297ea6" stroke="#297ea6"></path><path d="M0 0L0 219L209 254Z" fill="#0c2435" stroke="#0c2435"></path><path d="M209 254L0 415L222 447Z" fill="#19435d" stroke="#19435d"></path><path d="M0 219L0 415L209 254Z" fill="#112e42" stroke="#112e42"></path><path d="M1654 470L1692 193L1459 455Z" fill="#1d4e6b" stroke="#1d4e6b"></path><path d="M935 1080L1201 1080L974 845Z" fill="#19435d" stroke="#19435d"></path><path d="M1692 193L1655 0L1439 186Z" fill="#112e42" stroke="#112e42"></path><path d="M253 1080L462 1080L462 870Z" fill="#081a28" stroke="#081a28"></path><path d="M1648 881L1677 610L1468 665Z" fill="#1d4e6b" stroke="#1d4e6b"></path><path d="M1920 439L1920 191L1692 193Z" fill="#277297" stroke="#277297"></path><path d="M268 0L0 0L209 254Z" fill="#0c2435" stroke="#0c2435"></path><path d="M0 415L0 615L222 447Z" fill="#081a28" stroke="#081a28"></path><path d="M1201 1080L1431 1080L1181 856Z" fill="#246688" stroke="#246688"></path><path d="M1460 846L1648 881L1468 665Z" fill="#297ea6" stroke="#297ea6"></path><path d="M232 851L253 1080L462 870Z" fill="#081a28" stroke="#081a28"></path><path d="M0 1080L253 1080L232 851Z" fill="#246688" stroke="#246688"></path><path d="M1431 1080L1648 881L1460 846Z" fill="#277297" stroke="#277297"></path><path d="M0 615L0 826L241 630Z" fill="#15384f" stroke="#15384f"></path><path d="M1920 439L1692 193L1654 470Z" fill="#0c2435" stroke="#0c2435"></path><path d="M1692 193L1920 0L1655 0Z" fill="#00101c" stroke="#00101c"></path><path d="M1920 439L1654 470L1677 610Z" fill="#19435d" stroke="#19435d"></path><path d="M1920 615L1920 439L1677 610Z" fill="#112e42" stroke="#112e42"></path><path d="M1920 191L1920 0L1692 193Z" fill="#0c2435" stroke="#0c2435"></path><path d="M1431 1080L1644 1080L1648 881Z" fill="#246688" stroke="#246688"></path><path d="M1920 845L1920 615L1677 610Z" fill="#00101c" stroke="#00101c"></path><path d="M1920 845L1677 610L1648 881Z" fill="#00101c" stroke="#00101c"></path><path d="M0 826L0 1080L232 851Z" fill="#081a28" stroke="#081a28"></path><path d="M1920 1080L1920 845L1648 881Z" fill="#081a28" stroke="#081a28"></path><path d="M1644 1080L1920 1080L1648 881Z" fill="#246688" stroke="#246688"></path></g></svg>